<svg width="1440" height="779" viewBox="0 0 1440 779" fill="none" xmlns="http://www.w3.org/2000/svg">
<path d="M1305.52 778.584C1305.52 778.583 1305.53 778.582 1305.53 778.581C1305.53 778.537 1305.53 778.515 1305.53 778.505C1305.53 778.497 1305.52 778.493 1305.51 778.492L100.924 778.493C45.6955 778.493 0.923924 733.721 0.923924 678.493V1.05441C0.923924 0.0327806 2.41342 -0.213365 2.75819 0.74833C4.61493 5.92756 7.47103 13.3016 11.4729 22.0964C19.4765 39.6855 32.0646 62.9609 50.4091 85.726C87.1066 131.267 146.812 174.73 238.861 166.603C284.795 162.548 314.42 167.533 336.81 177.263C357.164 186.109 371.559 198.883 386.838 212.442L386.838 212.442C703.5 424.034 740 140.389 860.5 382.669C949.832 562.283 1204.59 628.948 1330.4 651.419C1373.21 659.064 1408.28 690.781 1422.33 731.932C1428.42 749.755 1435.45 767.069 1442.78 778.492H1305.51C1305.52 778.493 1305.53 778.497 1305.53 778.505C1305.53 778.515 1305.53 778.537 1305.53 778.581C1305.53 778.572 1305.53 778.563 1305.53 778.554L1305.52 778.584Z" fill="#D4D3D1"/>
</svg>
