<svg width="24" height="24" viewBox="0 0 24 24" fill="none" xmlns="http://www.w3.org/2000/svg">
<path fill-rule="evenodd" clip-rule="evenodd" d="M14.8282 12L23.4142 3.41401C24.1962 2.63201 24.1962 1.36801 23.4142 0.586012C22.6322 -0.195988 21.3682 -0.195988 20.5862 0.586012L12.0002 9.17201L3.41419 0.586012C2.63219 -0.195988 1.36819 -0.195988 0.586195 0.586012C-0.195805 1.36801 -0.195805 2.63201 0.586195 3.41401L9.17219 12L0.586195 20.586C-0.195805 21.368 -0.195805 22.632 0.586195 23.414C0.976195 23.804 1.48819 24 2.00019 24C2.51219 24 3.02419 23.804 3.41419 23.414L12.0002 14.828L20.5862 23.414C20.9762 23.804 21.4882 24 22.0002 24C22.5122 24 23.0242 23.804 23.4142 23.414C24.1962 22.632 24.1962 21.368 23.4142 20.586L14.8282 12Z" fill="#131F33"/>
</svg>
