<svg width="156" height="106" viewBox="0 0 156 106" fill="none" xmlns="http://www.w3.org/2000/svg">
<circle cx="7.99994" cy="8" r="8" fill="#C4C4C4" fill-opacity="0.35"/>
<circle cx="35.9999" cy="8" r="8" fill="#C4C4C4" fill-opacity="0.35"/>
<circle cx="63.9999" cy="8" r="8" fill="#C4C4C4" fill-opacity="0.35"/>
<circle cx="91.9999" cy="8" r="8" fill="#C4C4C4" fill-opacity="0.35"/>
<circle cx="120" cy="8" r="8" fill="#C4C4C4" fill-opacity="0.35"/>
<circle cx="148" cy="8" r="8" fill="#C4C4C4" fill-opacity="0.35"/>
<circle cx="7.99994" cy="38" r="8" fill="#C4C4C4" fill-opacity="0.35"/>
<circle cx="35.9999" cy="38" r="8" fill="#C4C4C4" fill-opacity="0.35"/>
<circle cx="63.9999" cy="38" r="8" fill="#C4C4C4" fill-opacity="0.35"/>
<circle cx="91.9999" cy="38" r="8" fill="#C4C4C4" fill-opacity="0.35"/>
<circle cx="120" cy="38" r="8" fill="#C4C4C4" fill-opacity="0.35"/>
<circle cx="148" cy="38" r="8" fill="#C4C4C4" fill-opacity="0.35"/>
<circle cx="7.99994" cy="68" r="8" fill="#C4C4C4" fill-opacity="0.35"/>
<circle cx="35.9999" cy="68" r="8" fill="#C4C4C4" fill-opacity="0.35"/>
<circle cx="63.9999" cy="68" r="8" fill="#C4C4C4" fill-opacity="0.35"/>
<circle cx="91.9999" cy="68" r="8" fill="#C4C4C4" fill-opacity="0.35"/>
<circle cx="120" cy="68" r="8" fill="#C4C4C4" fill-opacity="0.35"/>
<circle cx="148" cy="68" r="8" fill="#C4C4C4" fill-opacity="0.35"/>
<circle cx="7.99994" cy="98" r="8" fill="#C4C4C4" fill-opacity="0.35"/>
<circle cx="35.9999" cy="98" r="8" fill="#C4C4C4" fill-opacity="0.35"/>
<circle cx="63.9999" cy="98" r="8" fill="#C4C4C4" fill-opacity="0.35"/>
<circle cx="91.9999" cy="98" r="8" fill="#C4C4C4" fill-opacity="0.35"/>
<circle cx="120" cy="98" r="8" fill="#C4C4C4" fill-opacity="0.35"/>
<circle cx="148" cy="98" r="8" fill="#C4C4C4" fill-opacity="0.35"/>
</svg>
