<svg width="21" height="13" viewBox="0 0 21 13" fill="none" xmlns="http://www.w3.org/2000/svg">
<path fill-rule="evenodd" clip-rule="evenodd" d="M18.9409 10.0822C18.9101 9.6368 18.7632 9.03915 18.5358 8.12942L18.4927 7.95699C18.3844 7.52374 18.7356 7.10228 19.2771 7.01563C19.8187 6.92898 20.3455 7.20996 20.4538 7.64321L20.4969 7.81563C20.5018 7.83492 20.5066 7.85415 20.5114 7.8733C20.7204 8.70945 20.8982 9.42044 20.9379 9.9938C20.9799 10.6022 20.8808 11.2073 20.3537 11.7217C19.8265 12.2361 19.1043 12.4325 18.3503 12.5188C17.6398 12.6002 16.7334 12.6001 15.6675 12.6001C15.6431 12.6001 15.6186 12.6001 15.594 12.6001L5.27895 12.6001C4.21306 12.6001 3.3067 12.6002 2.59614 12.5188C1.84221 12.4325 1.11998 12.2361 0.592827 11.7217C0.0656739 11.2073 -0.0334414 10.6022 0.00861564 9.9938C0.0482523 9.42045 0.226048 8.70945 0.435135 7.87332L0.492665 7.6432C0.600977 7.20996 1.1278 6.92898 1.66936 7.01563C2.21092 7.10228 2.56214 7.52374 2.45383 7.95699L2.41072 8.12942C2.18329 9.03915 2.03635 9.6368 2.00556 10.0822C1.97629 10.5056 2.06655 10.6361 2.13951 10.7073C2.21247 10.7785 2.35466 10.8749 2.87948 10.935C3.4314 10.9982 4.19278 11.0001 5.35246 11.0001L15.594 11.0001C16.7537 11.0001 17.5151 10.9982 18.067 10.935C18.5918 10.8749 18.734 10.7785 18.807 10.7073C18.8799 10.6361 18.9702 10.5056 18.9409 10.0822Z" fill="#394564"/>
<path fill-rule="evenodd" clip-rule="evenodd" d="M14.1804 5.63441C13.7898 5.32199 13.1567 5.32199 12.7661 5.63441L11.4732 6.66873L11.4732 1.4001C11.4732 0.95827 11.0255 0.600098 10.4732 0.600098C9.92096 0.600098 9.47325 0.958269 9.47325 1.4001L9.47325 6.66873L8.18035 5.63441C7.78983 5.32199 7.15666 5.32199 6.76614 5.63441C6.37562 5.94683 6.37562 6.45336 6.76614 6.76578L9.76614 9.16578C10.1567 9.4782 10.7898 9.4782 11.1804 9.16578L14.1804 6.76578C14.5709 6.45336 14.5709 5.94683 14.1804 5.63441Z" fill="#394564"/>
</svg>
