<svg width="17" height="13" viewBox="0 0 17 13" fill="none" xmlns="http://www.w3.org/2000/svg">
<path d="M16.6213 1.97687C16.6213 1.42458 16.1736 0.976868 15.6213 0.976868L1.62134 0.976868C1.06905 0.976868 0.621338 1.42458 0.621338 1.97687C0.621338 2.52915 1.06905 2.97687 1.62134 2.97687L15.6213 2.97687C16.1736 2.97687 16.6213 2.52915 16.6213 1.97687Z" fill="#394564"/>
<path d="M16.6213 6.97687C16.6213 6.42458 16.1736 5.97687 15.6213 5.97687H5.62134C5.06905 5.97687 4.62134 6.42458 4.62134 6.97687C4.62134 7.52915 5.06905 7.97687 5.62134 7.97687H15.6213C16.1736 7.97687 16.6213 7.52915 16.6213 6.97687Z" fill="#394564"/>
<path d="M15.6213 10.9769C16.1736 10.9769 16.6213 11.4246 16.6213 11.9769C16.6213 12.5292 16.1736 12.9769 15.6213 12.9769H9.62134C9.06905 12.9769 8.62134 12.5292 8.62134 11.9769C8.62134 11.4246 9.06905 10.9769 9.62134 10.9769H15.6213Z" fill="#394564"/>
</svg>
